<?xml version="1.0" encoding="UTF-8" standalone="no"?>
<svg
   xmlns:dc="http://purl.org/dc/elements/1.1/"
   xmlns:cc="http://creativecommons.org/ns#"
   xmlns:rdf="http://www.w3.org/1999/02/22-rdf-syntax-ns#"
   xmlns:svg="http://www.w3.org/2000/svg"
   xmlns="http://www.w3.org/2000/svg"
   xmlns:xlink="http://www.w3.org/1999/xlink"
   xmlns:sodipodi="http://sodipodi.sourceforge.net/DTD/sodipodi-0.dtd"
   xmlns:inkscape="http://www.inkscape.org/namespaces/inkscape"
   version="1.1"
   width="40"
   height="40"
   viewBox="0 0 40 40"
   enable-background="new 0 0 48 48"
   id="svg2"
   inkscape:version="0.48.4 r9939"
   sodipodi:docname="social.svg">
  <sodipodi:namedview
     pagecolor="#ffffff"
     bordercolor="#666666"
     borderopacity="1"
     objecttolerance="10"
     gridtolerance="10"
     guidetolerance="10"
     inkscape:pageopacity="0"
     inkscape:pageshadow="2"
     inkscape:window-width="1871"
     inkscape:window-height="1056"
     id="namedview59"
     showgrid="false"
     inkscape:zoom="8.40625"
     inkscape:cx="22.440494"
     inkscape:cy="15.15845"
     inkscape:window-x="49"
     inkscape:window-y="24"
     inkscape:window-maximized="1"
     inkscape:current-layer="svg2" />
  <metadata
     id="metadata3043">
    <rdf:RDF>
      <cc:Work
         rdf:about="">
        <dc:format>image/svg+xml</dc:format>
        <dc:type
           rdf:resource="http://purl.org/dc/dcmitype/StillImage" />
      </cc:Work>
    </rdf:RDF>
  </metadata>
  <defs
     id="defs3041">
    <clipPath
       id="SVGID_2_">
      <use
         xlink:href="#SVGID_1_"
         id="use4168" />
    </clipPath>
    <clipPath
       id="SVGID_4_">
      <use
         xlink:href="#SVGID_3_"
         id="use4182" />
    </clipPath>
    <clipPath
       id="clipPath4293">
      <use
         id="use4295"
         xlink:href="#SVGID_1_" />
    </clipPath>
    <clipPath
       id="clipPath4309">
      <use
         id="use4311"
         xlink:href="#SVGID_3_" />
    </clipPath>
    <circle
       id="SVGID_1_"
       cx="24.375"
       cy="23.292"
       r="17.75" />
    <circle
       id="SVGID_3_"
       cx="24.375"
       cy="23.292"
       r="17.75" />
    <circle
       r="17.75"
       cy="23.292"
       cx="24.375"
       id="circle4291" />
    <circle
       r="17.75"
       cy="23.292"
       cx="24.375"
       id="circle4307" />
  </defs>
  <path
     style="fill:#2f3034;fill-opacity:1"
     inkscape:connector-curvature="0"
     d="M 31.232014,31.087441"
     id="path3872" />
  <path
     style="color:#000000;fill:#2f3034;fill-opacity:1"
     d="m 33.635665,40 -3.9861,-6.987992 6.186765,-10.837126 H 40 L 33.813775,33.012008 37.800417,40 h -4.164752 z"
     id="Xing_2_"
     inkscape:connector-curvature="0" />
  <polygon
     style="color:#000000;fill:#2f3034;stroke-width:1.37500000000000000;fill-opacity:1"
     id="polygon3877"
     points="8.563,30.86 15.814,30.86 21.528,21.455 17.244,13.908 9.992,13.908 14.277,21.455 "
     transform="matrix(0.54136906,0,0,0.54136906,18.332244,18.10108)" />
  <g
     id="g3938"
     transform="matrix(0.74448843,0,0,0.74448843,3.9330391,-16.667804)"
     fill="#f19138"
     enable-background="accumulate"
     color="#000000"
     style="fill:#223a6e;fill-opacity:1">
    <g
       id="g3928"
       style="fill:#223a6e;fill-opacity:1">
      <path
         id="path3922"
         d="M 36.668099,34.359651"
         inkscape:connector-curvature="0"
         style="fill:#223a6e;fill-opacity:1" />
      <path
         inkscape:connector-curvature="0"
         id="path3924"
         d="m 39.896693,46.331038 -5.354147,-9.3863 8.310089,-14.556474 h 5.592659 l -8.309363,14.556474 5.354874,9.3863 h -5.594112 z"
         style="fill:#223a6e;fill-opacity:1" />
      <polygon
         transform="matrix(0.72716921,0,0,0.72716921,19.341073,16.916316)"
         points="21.528,21.455 17.244,13.908 9.992,13.908 14.277,21.455 8.563,30.86 15.814,30.86 "
         id="polygon3926"
         stroke-width="1.375"
         style="fill:#223a6e;fill-opacity:1" />
    </g>
  </g>
  <g
     id="g4160"
     transform="matrix(0.51067201,0,0,0.51067201,-3.3832021,19.040999)"
     fill="#08242f"
     enable-background="accumulate"
     color="#000000"
     stroke-width="1.375"
     style="fill:#2f303f;fill-opacity:1">
    <g
       id="g4162"
       stroke-width="1.375"
       style="fill:#2f303f;fill-opacity:1">
      <g
         clip-path="url(#SVGID_2_)"
         id="g4170"
         stroke-width="1.375"
         style="fill:#2f303f;fill-opacity:1">
        <g
           id="g4172"
           stroke-width="1.375"
           style="fill:#2f303f;fill-opacity:1">
          <path
             inkscape:connector-curvature="0"
             d="m 23.957,5.923 c -9.989,0 -18.086,8.098 -18.086,18.086 0,8.043 5.252,14.851 12.51,17.201 0.429,-0.312 1.012,-0.685 1.012,-1.368 0,-0.939 -0.021,-3.35 -0.021,-3.35 0,0 -0.736,0.13 -1.785,0.13 -2.643,0 -3.478,-1.689 -3.877,-2.634 -0.519,-1.23 -1.19,-1.809 -1.904,-2.271 -0.438,-0.284 -0.539,-0.617 -0.034,-0.711 2.341,-0.44 2.94,2.653 4.503,3.146 1.117,0.352 2.549,0.198 3.264,-0.261 0.093,-0.947 0.775,-1.763 1.343,-2.193 -3.975,-0.382 -6.332,-1.766 -7.555,-3.983 L 13.196,27.468 C 13.082,27.239 12.981,27.005 12.89,26.762 l -0.093,-0.251 c -0.382,-1.126 -0.553,-2.416 -0.553,-3.86 0,-2.56 0.797,-3.523 1.868,-4.888 -0.819,-2.917 0.296,-4.911 0.296,-4.911 0,0 1.721,-0.357 4.975,1.972 1.761,-0.755 6.463,-0.817 8.685,-0.166 1.364,-0.903 3.864,-2.185 4.872,-1.826 0.272,0.438 0.859,1.719 0.355,4.531 0.342,0.616 2.117,1.933 2.125,5.648 -0.027,1.37 -0.173,2.524 -0.437,3.505 l -0.071,0.255 c -0.075,0.245 -0.157,0.478 -0.249,0.706 l -0.109,0.247 c -1.179,2.592 -3.599,3.557 -7.506,3.962 1.265,0.794 1.629,1.797 1.629,4.504 0,2.709 -0.036,3.071 -0.027,3.693 0.001,0.064 0.007,0.124 0.02,0.183 0.095,0.499 0.538,0.856 0.909,1.132 C 36.814,38.833 42.043,32.037 42.043,24.01 42.042,14.021 33.946,5.923 23.957,5.923 z"
             id="path4174"
             stroke-width="1.375"
             style="fill:#2f303f;fill-opacity:1" />
        </g>
      </g>
    </g>
    <g
       id="g4176"
       stroke-width="1.375"
       style="fill:#2f303f;fill-opacity:1">
      <g
         clip-path="url(#SVGID_4_)"
         id="g4184"
         stroke-width="1.375"
         style="fill:#2f303f;fill-opacity:1">
        <ellipse
           cx="12.54"
           cy="31.32"
           rx=".282"
           ry=".19"
           id="ellipse4186"
           stroke-width="1.375"
           d="m 12.822,31.32 c 0,0.104934 -0.126256,0.19 -0.282,0.19 -0.155744,0 -0.282,-0.08507 -0.282,-0.19 0,-0.104934 0.126256,-0.19 0.282,-0.19 0.155744,0 0.282,0.08507 0.282,0.19 z"
           style="fill:#2f303f;fill-opacity:1" />
        <ellipse
           cx="13.42"
           cy="31.805"
           rx=".282"
           ry=".189"
           id="ellipse4188"
           stroke-width="1.375"
           d="m 13.702,31.805 c 0,0.104382 -0.126256,0.189 -0.282,0.189 -0.155744,0 -0.282,-0.08462 -0.282,-0.189 0,-0.104382 0.126256,-0.189 0.282,-0.189 0.155744,0 0.282,0.08462 0.282,0.189 z"
           style="fill:#2f303f;fill-opacity:1" />
        <ellipse
           cx="13.958"
           cy="32.444"
           rx=".283"
           ry=".189"
           id="ellipse4190"
           stroke-width="1.375"
           d="m 14.241,32.444 c 0,0.104382 -0.126703,0.189 -0.283,0.189 -0.156296,0 -0.283,-0.08462 -0.283,-0.189 0,-0.104382 0.126704,-0.189 0.283,-0.189 0.156297,0 0.283,0.08462 0.283,0.189 z"
           style="fill:#2f303f;fill-opacity:1" />
        <ellipse
           cx="14.432"
           cy="33.17"
           rx=".282"
           ry=".189"
           id="ellipse4192"
           stroke-width="1.375"
           d="m 14.714,33.169998 c 0,0.104382 -0.126256,0.189 -0.282,0.189 -0.155744,0 -0.282,-0.08462 -0.282,-0.189 0,-0.104382 0.126256,-0.189 0.282,-0.189 0.155744,0 0.282,0.08462 0.282,0.189 z"
           style="fill:#2f303f;fill-opacity:1" />
        <ellipse
           cx="14.97"
           cy="33.85"
           rx=".284"
           ry=".189"
           id="ellipse4194"
           stroke-width="1.375"
           d="m 15.254,33.849998 c 0,0.104382 -0.127151,0.189 -0.284,0.189 -0.156849,0 -0.284,-0.08462 -0.284,-0.189 0,-0.104381 0.127151,-0.189 0.284,-0.189 0.156849,0 0.284,0.08462 0.284,0.189 z"
           style="fill:#2f303f;fill-opacity:1" />
        <ellipse
           cx="15.698"
           cy="34.431"
           rx=".284"
           ry=".19"
           id="ellipse4196"
           stroke-width="1.375"
           d="m 15.982,34.431 c 0,0.104934 -0.127151,0.19 -0.284,0.19 -0.156849,0 -0.284,-0.08507 -0.284,-0.19 0,-0.104934 0.127151,-0.19 0.284,-0.19 0.156849,0 0.284,0.08507 0.284,0.19 z"
           style="fill:#2f303f;fill-opacity:1" />
        <ellipse
           cx="16.715"
           cy="34.809"
           rx=".283"
           ry=".188"
           id="ellipse4198"
           stroke-width="1.375"
           d="m 16.998,34.808998 c 0,0.10383 -0.126703,0.188 -0.283,0.188 -0.156296,0 -0.283,-0.08417 -0.283,-0.188 0,-0.103829 0.126704,-0.188 0.283,-0.188 0.156297,0 0.283,0.08417 0.283,0.188 z"
           style="fill:#2f303f;fill-opacity:1" />
        <ellipse
           cx="17.737"
           cy="34.809"
           rx=".282"
           ry=".188"
           id="ellipse4200"
           stroke-width="1.375"
           d="m 18.019,34.808998 c 0,0.10383 -0.126256,0.188 -0.282,0.188 -0.155745,0 -0.282,-0.08417 -0.282,-0.188 0,-0.103829 0.126255,-0.188 0.282,-0.188 0.155744,0 0.282,0.08417 0.282,0.188 z"
           style="fill:#2f303f;fill-opacity:1" />
        <ellipse
           cx="18.761"
           cy="34.647"
           rx=".283"
           ry=".191"
           id="ellipse4202"
           stroke-width="1.375"
           d="m 19.044,34.646999 c 0,0.105487 -0.126704,0.191 -0.283,0.191 -0.156297,0 -0.283,-0.08551 -0.283,-0.191 0,-0.105486 0.126703,-0.191 0.283,-0.191 0.156296,0 0.283,0.08551 0.283,0.191 z"
           style="fill:#2f303f;fill-opacity:1" />
      </g>
    </g>
  </g>
  <g
     transform="matrix(0.51067201,0,0,0.51067201,-3.3832021,-3.0247103)"
     id="g4285"
     fill="#f19138"
     enable-background="accumulate"
     color="#000000"
     stroke-width="1.62"
     style="fill:#223a6e;fill-opacity:1">
    <g
       id="g4287"
       stroke-width="1.62"
       style="fill:#223a6e;fill-opacity:1">
      <g
         id="g4297"
         clip-path="url(#SVGID_2_)"
         stroke-width="1.62"
         style="fill:#223a6e;fill-opacity:1">
        <g
           id="g4299"
           stroke-width="1.62"
           style="fill:#223a6e;fill-opacity:1">
          <path
             id="path4301"
             d="m 23.957,5.923 c -9.989,0 -18.086,8.098 -18.086,18.086 0,8.043 5.252,14.851 12.51,17.201 0.429,-0.312 1.012,-0.685 1.012,-1.368 0,-0.939 -0.021,-3.35 -0.021,-3.35 0,0 -0.736,0.13 -1.785,0.13 -2.643,0 -3.478,-1.689 -3.877,-2.634 -0.519,-1.23 -1.19,-1.809 -1.904,-2.271 -0.438,-0.284 -0.539,-0.617 -0.034,-0.711 2.341,-0.44 2.94,2.653 4.503,3.146 1.117,0.352 2.549,0.198 3.264,-0.261 0.093,-0.947 0.775,-1.763 1.343,-2.193 -3.975,-0.382 -6.332,-1.766 -7.555,-3.983 L 13.196,27.468 C 13.082,27.239 12.981,27.005 12.89,26.762 l -0.093,-0.251 c -0.382,-1.126 -0.553,-2.416 -0.553,-3.86 0,-2.56 0.797,-3.523 1.868,-4.888 -0.819,-2.917 0.296,-4.911 0.296,-4.911 0,0 1.721,-0.357 4.975,1.972 1.761,-0.755 6.463,-0.817 8.685,-0.166 1.364,-0.903 3.864,-2.185 4.872,-1.826 0.272,0.438 0.859,1.719 0.355,4.531 0.342,0.616 2.117,1.933 2.125,5.648 -0.027,1.37 -0.173,2.524 -0.437,3.505 l -0.071,0.255 c -0.075,0.245 -0.157,0.478 -0.249,0.706 l -0.109,0.247 c -1.179,2.592 -3.599,3.557 -7.506,3.962 1.265,0.794 1.629,1.797 1.629,4.504 0,2.709 -0.036,3.071 -0.027,3.693 0.001,0.064 0.007,0.124 0.02,0.183 0.095,0.499 0.538,0.856 0.909,1.132 C 36.814,38.833 42.043,32.037 42.043,24.01 42.042,14.021 33.946,5.923 23.957,5.923 z"
             inkscape:connector-curvature="0"
             stroke-width="1.62"
             style="fill:#223a6e;fill-opacity:1" />
        </g>
      </g>
    </g>
    <g
       id="g4303"
       stroke-width="1.62"
       style="fill:#223a6e;fill-opacity:1">
      <g
         id="g4313"
         clip-path="url(#SVGID_4_)"
         stroke-width="1.62"
         style="fill:#223a6e;fill-opacity:1">
        <ellipse
           id="ellipse4315"
           ry=".19"
           rx=".282"
           cy="31.32"
           cx="12.54"
           stroke-width="1.62"
           d="m 12.822,31.32 c 0,0.104934 -0.126256,0.19 -0.282,0.19 -0.155744,0 -0.282,-0.08507 -0.282,-0.19 0,-0.104934 0.126256,-0.19 0.282,-0.19 0.155744,0 0.282,0.08507 0.282,0.19 z"
           style="fill:#223a6e;fill-opacity:1" />
        <ellipse
           id="ellipse4317"
           ry=".189"
           rx=".282"
           cy="31.805"
           cx="13.42"
           stroke-width="1.62"
           d="m 13.702,31.805 c 0,0.104382 -0.126256,0.189 -0.282,0.189 -0.155744,0 -0.282,-0.08462 -0.282,-0.189 0,-0.104382 0.126256,-0.189 0.282,-0.189 0.155744,0 0.282,0.08462 0.282,0.189 z"
           style="fill:#223a6e;fill-opacity:1" />
        <ellipse
           id="ellipse4319"
           ry=".189"
           rx=".283"
           cy="32.444"
           cx="13.958"
           stroke-width="1.62"
           d="m 14.241,32.444 c 0,0.104382 -0.126703,0.189 -0.283,0.189 -0.156296,0 -0.283,-0.08462 -0.283,-0.189 0,-0.104382 0.126704,-0.189 0.283,-0.189 0.156297,0 0.283,0.08462 0.283,0.189 z"
           style="fill:#223a6e;fill-opacity:1" />
        <ellipse
           id="ellipse4321"
           ry=".189"
           rx=".282"
           cy="33.17"
           cx="14.432"
           stroke-width="1.62"
           d="m 14.714,33.169998 c 0,0.104382 -0.126256,0.189 -0.282,0.189 -0.155744,0 -0.282,-0.08462 -0.282,-0.189 0,-0.104382 0.126256,-0.189 0.282,-0.189 0.155744,0 0.282,0.08462 0.282,0.189 z"
           style="fill:#223a6e;fill-opacity:1" />
        <ellipse
           id="ellipse4323"
           ry=".189"
           rx=".284"
           cy="33.85"
           cx="14.97"
           stroke-width="1.62"
           d="m 15.254,33.849998 c 0,0.104382 -0.127151,0.189 -0.284,0.189 -0.156849,0 -0.284,-0.08462 -0.284,-0.189 0,-0.104381 0.127151,-0.189 0.284,-0.189 0.156849,0 0.284,0.08462 0.284,0.189 z"
           style="fill:#223a6e;fill-opacity:1" />
        <ellipse
           id="ellipse4325"
           ry=".19"
           rx=".284"
           cy="34.431"
           cx="15.698"
           stroke-width="1.62"
           d="m 15.982,34.431 c 0,0.104934 -0.127151,0.19 -0.284,0.19 -0.156849,0 -0.284,-0.08507 -0.284,-0.19 0,-0.104934 0.127151,-0.19 0.284,-0.19 0.156849,0 0.284,0.08507 0.284,0.19 z"
           style="fill:#223a6e;fill-opacity:1" />
        <ellipse
           id="ellipse4327"
           ry=".188"
           rx=".283"
           cy="34.809"
           cx="16.715"
           stroke-width="1.62"
           d="m 16.998,34.808998 c 0,0.10383 -0.126703,0.188 -0.283,0.188 -0.156296,0 -0.283,-0.08417 -0.283,-0.188 0,-0.103829 0.126704,-0.188 0.283,-0.188 0.156297,0 0.283,0.08417 0.283,0.188 z"
           style="fill:#223a6e;fill-opacity:1" />
        <ellipse
           id="ellipse4329"
           ry=".188"
           rx=".282"
           cy="34.809"
           cx="17.737"
           stroke-width="1.62"
           d="m 18.019,34.808998 c 0,0.10383 -0.126256,0.188 -0.282,0.188 -0.155745,0 -0.282,-0.08417 -0.282,-0.188 0,-0.103829 0.126255,-0.188 0.282,-0.188 0.155744,0 0.282,0.08417 0.282,0.188 z"
           style="fill:#223a6e;fill-opacity:1" />
        <ellipse
           id="ellipse4331"
           ry=".191"
           rx=".283"
           cy="34.647"
           cx="18.761"
           stroke-width="1.62"
           d="m 19.044,34.646999 c 0,0.105487 -0.126704,0.191 -0.283,0.191 -0.156297,0 -0.283,-0.08551 -0.283,-0.191 0,-0.105486 0.126703,-0.191 0.283,-0.191 0.156296,0 0.283,0.08551 0.283,0.191 z"
           style="fill:#223a6e;fill-opacity:1" />
      </g>
    </g>
  </g>
</svg>
